<svg xmlns="http://www.w3.org/2000/svg" width="193.655" height="22.17" viewBox="0 0 193.655 22.17"><g transform="matrix(0.999, -0.035, 0.035, 0.999, 0, 6.744)"><path d="M-211.642-1248.065a7.049,7.049,0,0,0,2.587.166c.29-.037.592.026.887.006.589-.04,1.176-.118,1.767-.155a4.275,4.275,0,0,0,.835.022,2.38,2.38,0,0,1,.874-.025,1.476,1.476,0,0,0,.65-.018,7.028,7.028,0,0,1,2.266-.3c.887-.1,1.786-.123,2.68-.141a5.357,5.357,0,0,1,1.647.121,4.135,4.135,0,0,0,2.608.161c1.1.263,2.287.037,3.367.479.426.175.9.384,1.315-.062.023-.024.168.062.26.078.473.089.889.473,1.446.225l.438-.626c.45.061.892-.2,1.376-.067a1.907,1.907,0,0,0,1.092.066.479.479,0,0,1,.315,0,2.138,2.138,0,0,0,1.482.091c.338-.079.443.152.667.237l.984-.679-.921-.449.3-.379a4.25,4.25,0,0,0,.7.262,3.993,3.993,0,0,0,.729.009c0,.454,0,.454-.512.851.511.111,1.074-.021,1.425.4.348-.211.7-.045,1.061-.031.513.02,1.03-.026,1.545-.054.061,0,.119-.066.246-.142l-.308-.637,1.363.219-.268.575.529.621.173-.5.714.283c.247-.621.247-.621-.573-.841.412-.185.765-.346,1.121-.5.064-.028.177-.062.208-.036.434.376.916-.015,1.38.079a11.738,11.738,0,0,0,1.443.047,5.622,5.622,0,0,1,1.427.194,6.111,6.111,0,0,0,2.193.192,1.1,1.1,0,0,0,.534-.085c.3-.2.665.248.981-.149.16-.2.591-.223.812-.3a2.772,2.772,0,0,0,.694.351c.58.1,1.172.14,1.76.206a2.026,2.026,0,0,1,.434.075,1.529,1.529,0,0,0,.971.038,1.834,1.834,0,0,1,.7.089l.094.443c.357-.086.7-.4,1.008.046a2.571,2.571,0,0,0,.456-.169v-.512a.949.949,0,0,1,.848-.19c1.134.136,2.278.146,3.416.332a14.66,14.66,0,0,1,2.659.541,1.3,1.3,0,0,0,.949.005,2.418,2.418,0,0,1,1.725-.017,8.693,8.693,0,0,0,1.526.227c1.13.173,2.257.36,3.387.529.693.1,1.389.186,2.084.272a2.313,2.313,0,0,0,1.1-.012.628.628,0,0,1,.419.038,10.1,10.1,0,0,0,2.909.59.765.765,0,0,0,.834-.269c-.141-.094-.269-.243-.419-.265-.948-.134-1.9-.238-2.852-.352a2.4,2.4,0,0,1-.55-.067c-1.22-.461-2.569-.335-3.807-.713a7.3,7.3,0,0,0-.771-.09,2.944,2.944,0,0,1-.554-.294,11.19,11.19,0,0,1,2.4.028,4.783,4.783,0,0,0,1.217.106,20.091,20.091,0,0,1,3.615.424c1.31.234,2.632.412,3.952.588,1.245.167,2.5.283,3.741.457a9.677,9.677,0,0,1,1.275.35,2.745,2.745,0,0,0,.733.2c1-.017,1.974.272,2.981.215.462-.026.908.129,1.381-.145.246-.142.692.117,1.023-.15.045-.036.345.113.443.233a.661.661,0,0,0,.555.273,1.019,1.019,0,0,0,.737-.15c.08-.069.215-.095.273-.172.455-.623,1.145-.537,1.807-.5.5.025.6.112.744.6a3.789,3.789,0,0,1,.077.393c.106-.055.2-.078.209-.113.09-.632.089-.656.673-.665a2.763,2.763,0,0,0,1.644-.4l.356.564,1.244.135a.764.764,0,0,0,.353-1.039c-.32-.083-.629-.158-.933-.246a6.881,6.881,0,0,0-1.186-.212c-.991-.107-1.972-.309-2.956-.476a5.085,5.085,0,0,0-.872-.155,20.032,20.032,0,0,1-3.717-.575c-1.168-.2-2.339-.385-3.505-.6q-4.424-.8-8.844-1.614-2.4-.442-4.795-.9c-1.633-.312-3.262-.644-4.9-.953-.654-.123-1.318-.2-1.975-.312-2.226-.373-4.447-.775-6.677-1.12-2.6-.4-5.2-.758-7.808-1.131q-1.7-.244-3.412-.471c-1.8-.239-3.6-.483-5.4-.707-2.025-.251-4.05-.487-6.078-.719-1.547-.176-3.1-.335-4.644-.5-1.623-.176-3.243-.369-4.869-.526q-4.044-.391-8.093-.744c-2.182-.188-4.368-.352-6.552-.516-1.222-.092-2.444-.183-3.669-.239q-7.682-.352-15.365-.68c-3.229-.134-6.458-.26-9.69-.345-2.822-.075-5.648-.063-8.47-.132-5.909-.145-11.815.039-17.72.136-4.047.066-8.091.323-12.136.522-2.3.112-4.6.248-6.891.428-3.922.308-7.841.661-11.762.994-1.885.16-3.774.292-5.654.489-1.807.189-3.606.446-5.409.671-1.4.174-2.8.338-4.2.522-.917.12-1.83.273-2.745.4a2.083,2.083,0,0,0-1.321.686,2.14,2.14,0,0,1-.206.239c-.776.659-.78.667-.618,1.634.066.027.136.05.2.083.306.163.431-.465.745-.154a.882.882,0,0,0,.718.184q1.5-.023,3.006-.054c.626-.012.653.008.876.683a8.243,8.243,0,0,1,3.131-.33l.2.569c.418.163.553-.06.649-.338.067,0,.174-.025.194,0a.928.928,0,0,0,.874.327c1.6-.042,3.192-.071,4.788-.117,1.374-.039,2.748-.093,4.121-.145,1.41-.054,2.819-.121,4.229-.168.741-.024,1.483-.025,2.224-.013.1,0,.2.138.3.212-.113.068-.228.2-.338.193a1.39,1.39,0,0,0-1.116.33.757.757,0,0,1-.625.053,2.84,2.84,0,0,0-1.638,0c-.139.026-.349.048-.395.131-.238.434-.663.362-1.059.375-.148.005-.3-.016-.445-.017-.785,0-.785,0-1.461.605l-.216-.375c-.1.154-.3.317-.26.4a2.975,2.975,0,0,1,.062,1.379c.345.3.917.115,1.182.508a.119.119,0,0,0,.1.04c.744-.169,1.57.043,2.253-.314a1.7,1.7,0,0,1,.813-.162,25.8,25.8,0,0,0,3.411.081,2.718,2.718,0,0,1,1.092.113,4.7,4.7,0,0,0,1.752.131,2.013,2.013,0,0,1,1.6.492,2,2,0,0,1,.239.312l.36-.776c.4.1.4.534.706.694a2.04,2.04,0,0,1,1.78-.18c.1.041.221.032.321.071.511.2.982-.454,1.472-.081a2.478,2.478,0,0,0,1.377.3,12.921,12.921,0,0,0,1.55.054c.48-.007.96-.055,1.44-.092a15.36,15.36,0,0,1,3.741-.024,9.619,9.619,0,0,0,1.661.017,5.9,5.9,0,0,1,2.181.227,7.184,7.184,0,0,0,2.2.059c.258.009.521-.055.778-.034a2.393,2.393,0,0,0,1.485-.266,1.535,1.535,0,0,1,.507-.1c.173.136.313.326.495.369a3.553,3.553,0,0,0,.886.04c.739-.016,1.478-.045,2.217-.068a25.181,25.181,0,0,0,2.987-.07,2.759,2.759,0,0,1,.424.049c.7.013,1.406.016,2.109.026a3.027,3.027,0,0,1,.66.028,5.842,5.842,0,0,0,2.213.065,20.583,20.583,0,0,1,5.433.1.466.466,0,0,1,.11.011,9.325,9.325,0,0,0,1.092.434c.368.1.751-.268,1.159,0,.086.057.332-.057.486-.127a.667.667,0,0,1,.524-.035,3.575,3.575,0,0,0,2.609-.07c.162-.067.336-.21.484-.191a17.569,17.569,0,0,1,2.643.119,4.363,4.363,0,0,0,.926.224c.325.019.668-.14.983-.095.694.1,1.376-.048,2.065-.011.658.035,1.32.034,2.02.049a.779.779,0,0,0,.213-.175.627.627,0,0,1,.861-.239,2.385,2.385,0,0,0,1.806.227.662.662,0,0,1,.675.256c.435.478.447.468,1.014.033a3.052,3.052,0,0,0,.342.228.659.659,0,0,0,.313.079c.259-.015.329-.4.648-.3.239.074.511.3.689.244a9.131,9.131,0,0,1,1.2-.084c.313-.059.455.149.644.311.449-.156.8-.631,1.326-.291a1.172,1.172,0,0,1,1.277.254Zm32.669-.5-.906.065c-.308.024-.594-.34-.925-.046a.452.452,0,0,1-.214-.166c-.046-.132-.015-.248.19-.278a6.271,6.271,0,0,0,.631-.155Zm-109.284-3.164c-.074.089-.1.158-.161.183a1.106,1.106,0,0,1-.255.052c.033-.078.043-.19.1-.227S-288.385-1251.725-288.257-1251.725Z" transform="translate(308.493 1260.716)" fill="#53bc79"/><path d="M-198.674-1242.621c1.777.221,3.35.4,4.919.615a2.568,2.568,0,0,0,1.726-.222v-1.455a1.732,1.732,0,0,0-.519-.271,4.42,4.42,0,0,0-1.518-.074c-1.445.366-2.891.011-4.4.124Z" transform="translate(284.835 1257.108)" fill="#53bc79"/><path d="M-177.35-1243.5a1.439,1.439,0,0,0-1.561-.508.6.6,0,0,0-.477.717.983.983,0,0,0,.425.565,1.689,1.689,0,0,0,.74.144c.888.045,1.779.042,2.663.111a2.47,2.47,0,0,0,1.795-.5c.135-.106.284-.361.243-.487a.946.946,0,0,0-.446-.535,8.924,8.924,0,0,0-1.275-.377A1.62,1.62,0,0,0-177.35-1243.5Z" transform="translate(248.492 1256.874)" fill="#53bc79"/><path d="M-179.771-1243.078a1.984,1.984,0,0,0-2.585-1.025l.1,1.218A1.849,1.849,0,0,0-179.771-1243.078Z" transform="translate(256.58 1256.998)" fill="#53bc79"/><path d="M-201.967-1243.9a3.358,3.358,0,0,0,.184,1.2,1.777,1.777,0,0,0,.912.591.685.685,0,0,0,.622-.264c.073-.163-.1-.447-.19-.67-.015-.04-.111-.048-.164-.079C-201.009-1243.349-201.414-1243.581-201.967-1243.9Z" transform="translate(294.956 1257.217)" fill="#53bc79"/><path d="M-203.857-1243.027l-.031-.124-.029.1Z" transform="translate(300.027 1257.673)" fill="#53bc79"/><path d="M-199.167-1243.129l.214.129a1.767,1.767,0,0,0,.066-.322c0-.037-.085-.076-.132-.115C-199.067-1243.334-199.117-1243.232-199.167-1243.129Z" transform="translate(290.696 1257.498)" fill="#53bc79"/></g></svg>